<mxfile host="app.diagrams.net" modified="2022-03-30T15:12:14.411Z" agent="5.0 (Macintosh; Intel Mac OS X 10_15_7) AppleWebKit/537.36 (KHTML, like Gecko) Chrome/99.0.4844.83 Safari/537.36" etag="wAsfQ4CVqu8zk4iZzCuh" version="16.1.4" type="github">
  <diagram id="aHuz9mUgFSmH9PBUcMwU" name="第 1 页">
    <mxGraphModel dx="946" dy="614" grid="1" gridSize="10" guides="1" tooltips="1" connect="1" arrows="1" fold="1" page="1" pageScale="1" pageWidth="1169" pageHeight="827" math="0" shadow="0">
      <root>
        <mxCell id="0" />
        <mxCell id="1" parent="0" />
        <mxCell id="gr_qRga137vN5eQ9fBW_-5" value="" style="edgeStyle=orthogonalEdgeStyle;rounded=0;orthogonalLoop=1;jettySize=auto;html=1;sketch=1;fillColor=#ffe6cc;strokeColor=#d79b00;" edge="1" parent="1" source="gr_qRga137vN5eQ9fBW_-1" target="gr_qRga137vN5eQ9fBW_-4">
          <mxGeometry relative="1" as="geometry" />
        </mxCell>
        <mxCell id="gr_qRga137vN5eQ9fBW_-1" value="&lt;font style=&quot;font-size: 16px&quot;&gt;确认需求&lt;/font&gt;" style="rounded=1;whiteSpace=wrap;html=1;sketch=1;fillColor=#ffe6cc;strokeColor=#d79b00;" vertex="1" parent="1">
          <mxGeometry x="210" y="160" width="120" height="60" as="geometry" />
        </mxCell>
        <mxCell id="gr_qRga137vN5eQ9fBW_-3" value="&lt;font style=&quot;font-size: 16px&quot;&gt;前端实现&lt;/font&gt;" style="rounded=1;whiteSpace=wrap;html=1;sketch=1;fillColor=#ffe6cc;strokeColor=#d79b00;" vertex="1" parent="1">
          <mxGeometry x="550" y="160" width="120" height="60" as="geometry" />
        </mxCell>
        <mxCell id="gr_qRga137vN5eQ9fBW_-6" value="" style="edgeStyle=orthogonalEdgeStyle;rounded=0;orthogonalLoop=1;jettySize=auto;html=1;sketch=1;fillColor=#ffe6cc;strokeColor=#d79b00;" edge="1" parent="1" source="gr_qRga137vN5eQ9fBW_-4" target="gr_qRga137vN5eQ9fBW_-3">
          <mxGeometry relative="1" as="geometry" />
        </mxCell>
        <mxCell id="gr_qRga137vN5eQ9fBW_-4" value="&lt;font style=&quot;font-size: 16px&quot;&gt;UI设计&lt;/font&gt;" style="rounded=1;whiteSpace=wrap;html=1;sketch=1;fillColor=#ffe6cc;strokeColor=#d79b00;" vertex="1" parent="1">
          <mxGeometry x="380" y="160" width="120" height="60" as="geometry" />
        </mxCell>
      </root>
    </mxGraphModel>
  </diagram>
</mxfile>
